<svg xmlns="http://www.w3.org/2000/svg" xmlns:xlink="http://www.w3.org/1999/xlink" width="341.282" height="280.47" viewBox="0 0 341.282 280.47"><defs><linearGradient id="a" y1="0.5" x2="1" y2="0.5" gradientUnits="objectBoundingBox"><stop offset="0" stop-color="#01f0b1"/><stop offset="1" stop-color="#a440fd"/></linearGradient></defs><path d="M1515.218,968.487c.125,18.451,15.791,31.491,33.13,31.373,14.941-.1,30.187-14.238,30.083-29.168-.072-10.785-.613-17.107-9-25.343-19.187-18.849-54.414-6.676-54.213,23.137m177.469-40.7a21.963,21.963,0,0,0,6.267,14.854c23.765,24.618,54.292-18.415,25.188-33.485C1706.653,900.1,1692.619,918.117,1692.688,927.784Zm-251.41,9.609c.179,26.4,41.438,28.706,43.134.771.613-10.1-8.279-22.073-18.261-22l-6.583.043C1450.008,916.267,1441.213,927.924,1441.277,937.393Zm153.895-22.112c.19,28.143,42.316,27.1,42.137,1.029C1637.09,883.94,1594.992,889.225,1595.172,915.281Zm100.972-59.936c20.477-.14,17.39-29.082,1.119-28.971a15.445,15.445,0,0,0-15.246,13.7A14.149,14.149,0,0,0,1696.144,855.345Zm-167.168,6.4c.144,21.14,27.792,20.95,27.648-.187C1556.509,844.478,1528.857,844.542,1528.976,861.749Zm-63.6-58.813.018,2.632c.054,7.953,14.539,8.092,14.475-1.416C1479.8,794.3,1465.322,794.531,1465.379,802.936Z" transform="translate(-1085.969 -1183.27) rotate(17)" fill-rule="evenodd" opacity="0.61" fill="url(#a)"/></svg>