<svg xmlns="http://www.w3.org/2000/svg" xmlns:xlink="http://www.w3.org/1999/xlink" width="2097.521" height="1454.463" viewBox="0 0 2097.521 1454.463"><defs><linearGradient id="a" y1="0.5" x2="1" y2="0.5" gradientUnits="objectBoundingBox"><stop offset="0" stop-color="#01f0b1"/><stop offset="1" stop-color="#a440fd"/></linearGradient></defs><path d="M-1656.98-40.951a349.266,349.266,0,0,0-92.29-237.031c-33.747-36.747-61.728-78.462-81.5-124.269-53.722-124.472-177.507-211.62-321.664-211.749-189.774-.169-348.794,156.919-350.832,346.682q-.12,11.211.454,22.256c3.056,59.048-43.7,109.083-102.824,108.688q-2.341-.017-4.688,0c-198.626,1.273-308.843,169.655-347.968,364.394-34.717,172.8,58.016,299.143,49.075,369.25-10.024,78.608-8.379,159.885-8.379,245.326a349.318,349.318,0,0,0,95.438,240.414,396.82,396.82,0,0,1,77.162,118.1c53.107,126.05,177.806,214.538,323.173,214.538,193.594,0,350.532-156.939,350.532-350.533,0-56.421,54.286-127.086,104.741-127.086,193.594,0,350.533-156.939,350.533-350.533,0-94.725-24.394-214.506-50.276-298.395C-1695.212,195.356-1656.98,64.608-1656.98-40.951Z" transform="matrix(0.052, -0.999, 0.999, 0.052, 768.393, -1581.666)" opacity="0.51" fill="url(#a)"/></svg>